<svg version="1" xmlns="http://www.w3.org/2000/svg" xmlns:xlink="http://www.w3.org/1999/xlink" x="0px" y="0px"
	 viewBox="0 0 500 500" style="enable-background:new 0 0 500 500;" xml:space="preserve">
		<path style="fill:#FFFFFF;" d="M320.477,319.49c-0.09-0.01-0.18-0.019-0.271-0.027c0.001-0.034,0.005-0.066,0.005-0.099
			c0-3.728-3.022-6.75-6.751-6.75c-1.522,0-2.921,0.51-4.051,1.359c-2.637-8.929-11.113-15.354-21.009-14.842
			c-1.84,0.095-3.614,0.449-5.302,1.003c0.028-0.539,0.042-1.081,0.042-1.626c0-17.288-14.014-31.303-31.303-31.303
			c-15.344,0-28.101,11.044-30.777,25.614c-0.902-2.576-3.347-4.426-6.231-4.426c-1.489,0-2.859,0.499-3.964,1.331
			c-2.484-8.413-10.264-14.553-19.481-14.553c-11.22,0-20.315,9.095-20.315,20.315c0,2.146,0.335,4.213,0.952,6.155
			c-2.833,0.305-5.039,2.702-5.039,5.615c0,0.525,0.077,1.031,0.211,1.514c-6.858,0.623-12.232,6.381-12.232,13.401
			c0,7.436,6.028,13.463,13.463,13.463h38.489h12.609h100.013C329.724,335.636,330.607,320.568,320.477,319.49z"/>
</svg>
